<svg
    viewBox="0 0 160 130"
    version="1.1"
    xmlns="http://www.w3.org/2000/svg">
  <defs>
    <linearGradient
        id="grad1"
        x1="0"
        y1="0"
        x2="1"
        y2="1">
      <stop
          offset="0%"
          style="stop-color:#66B3FF;" />
      <stop
          offset="100%"
          style="stop-color:#0D47A1;" />
    </linearGradient>

    <linearGradient
        id="grad2"
        x1="0"
        y1="0"
        x2="1"
        y2="1">
      <stop
          offset="0%"
          style="stop-color:#80D0FF;" />
      <stop
          offset="100%"
          style="stop-color:#1565C0;" />
    </linearGradient>

    <linearGradient
        id="lineGrad"
        x1="0"
        y1="0.5"
        x2="1"
        y2="0.5">
      <stop
          offset="0%"
          style="stop-color:#FFFFFF; stop-opacity:0.8" />
      <stop
          offset="50%"
          style="stop-color:#BBDEFB; stop-opacity:1" />
      <stop
          offset="100%"
          style="stop-color:#FFFFFF; stop-opacity:0.8" />
    </linearGradient>
  </defs>

  <g opacity="0.95">
    <path
        d="m 25.936271,81 h 47.6 c 10.2,0 17.356373,-6.8 17.890932,-17 C 91.961763,53.8 85.518136,47 75.318136,47 72.363602,38.5 64.130881,33.4 55.630881,33.4 c -8.5,0 -15.567279,5.1 -19.323652,11.9 -5.1,0 -12.078187,3.4 -12.43456,10.2 C 16.983576,57.2 13.40539,60.6 13.049017,67.4 12.692644,74.2 19.136271,81 25.936271,81 Z"
        fill="url(#grad1)" />

    <path
        d="m 69.594145,80 h 55.999995 c 12,0 19.44059,-8 18.60147,-20 C 143.35649,48 134.79707,40 122.79707,40 118.0978,30 107.67824,24 97.678243,24 c -10,0 -17.580439,6 -21.021024,14 -6,0 -13.720293,4 -13.160878,12 -7.860147,2 -11.58044,6 -11.021025,14 0.559414,8 9.118829,16 17.118829,16 z"
        fill="url(#grad2)" />
  </g>

  <g>
    <path
        d="M 12.5,67 C 54,37 94,86 145,64"
        stroke="url(#lineGrad)"
        stroke-width="3.5"
        stroke-linecap="round"
        fill="none" />

    <path
        d="M 13.5,72 C 54,42 94,91 144,69"
        stroke="url(#lineGrad)"
        stroke-width="3.5"
        stroke-linecap="round"
        fill="none" />

    <path
        d="M 17,77 C 54,47 94,96 141.5,74"
        stroke="url(#lineGrad)"
        stroke-width="3.5"
        stroke-linecap="round"
        fill="none" />
  </g>
</svg>